<svg width="48" height="48" viewBox="0 0 48 48" fill="none" xmlns="http://www.w3.org/2000/svg">
<rect x="0.5" y="0.5" width="47" height="47" rx="9.5" fill="#FFF3E8"/>
<rect x="0.5" y="0.5" width="47" height="47" rx="9.5" stroke="#FF8516"/>
<path d="M22.6 16.15C22.6 16.34 22.44 16.5 22.25 16.5H21.12C18.96 16.5 17.2 18.26 17.2 20.42V29.65C17.2 29.84 17.04 30 16.85 30H16.15C14.96 30 14 29.04 14 27.85V16.15C14 14.96 14.96 14 16.15 14H20.45C21.64 14 22.6 14.96 22.6 16.15Z" fill="#FF8516"/>
<path d="M34.0004 16.15V27.85C34.0004 29.04 33.0404 30 31.8504 30H31.2204C31.0304 30 30.8704 29.84 30.8704 29.65V20.42C30.8704 18.26 29.1104 16.5 26.9504 16.5H25.7504C25.5604 16.5 25.4004 16.34 25.4004 16.15C25.4004 14.96 26.3604 14 27.5504 14H31.8504C33.0404 14 34.0004 14.96 34.0004 16.15Z" fill="#FF8516"/>
<path d="M26.9492 18H21.1192C19.7792 18 18.6992 19.08 18.6992 20.42V31.58C18.6992 32.92 19.7792 34 21.1192 34H22.7492C23.0292 34 23.2492 33.78 23.2492 33.5V31C23.2492 30.59 23.5892 30.25 23.9992 30.25C24.4092 30.25 24.7492 30.59 24.7492 31V33.5C24.7492 33.78 24.9692 34 25.2492 34H26.9592C28.2892 34 29.3692 32.92 29.3692 31.59V20.42C29.3692 19.08 28.2892 18 26.9492 18ZM25.9992 26.75H21.9992C21.5892 26.75 21.2492 26.41 21.2492 26C21.2492 25.59 21.5892 25.25 21.9992 25.25H25.9992C26.4092 25.25 26.7492 25.59 26.7492 26C26.7492 26.41 26.4092 26.75 25.9992 26.75ZM25.9992 23.75H21.9992C21.5892 23.75 21.2492 23.41 21.2492 23C21.2492 22.59 21.5892 22.25 21.9992 22.25H25.9992C26.4092 22.25 26.7492 22.59 26.7492 23C26.7492 23.41 26.4092 23.75 25.9992 23.75Z" fill="#FF8516"/>
</svg>
