<svg width="20" height="20" viewBox="0 0 20 20" fill="none" xmlns="http://www.w3.org/2000/svg">
<path d="M7.50038 11.8496H3.26704C2.75871 11.8496 2.29204 12.1079 2.02538 12.5413C1.75871 12.9663 1.73371 13.4746 1.95038 13.9246C2.97538 16.0246 4.82538 17.6746 7.02538 18.4496C7.17538 18.4996 7.34204 18.5329 7.50038 18.5329C7.79204 18.5329 8.08371 18.4413 8.33371 18.2663C8.72538 17.9913 8.95871 17.5413 8.95871 17.0663L8.96704 13.3163C8.96704 12.9246 8.81704 12.5579 8.54204 12.2829C8.25871 12.0079 7.89204 11.8496 7.50038 11.8496Z" fill="#4A555C"/>
<path d="M18.7329 8.00033C17.7996 3.90033 14.2079 1.04199 9.99961 1.04199C5.79128 1.04199 2.19961 3.90033 1.26628 8.00033C1.16628 8.43366 1.26628 8.87533 1.54961 9.22532C1.83295 9.57533 2.24961 9.77532 2.69961 9.77532H17.3079C17.7579 9.77532 18.1746 9.57533 18.4579 9.22532C18.7329 8.87533 18.8329 8.42533 18.7329 8.00033Z" fill="#4A555C"/>
<path d="M16.717 11.8921L12.5003 11.8838C12.1087 11.8838 11.742 12.0338 11.467 12.3088C11.192 12.5838 11.042 12.9505 11.042 13.3421L11.0503 17.0755C11.0503 17.5505 11.2837 18.0005 11.6753 18.2755C11.9253 18.4505 12.217 18.5421 12.5087 18.5421C12.667 18.5421 12.8253 18.5171 12.9753 18.4588C15.1587 17.6921 17.0087 16.0505 18.0337 13.9755C18.2503 13.5338 18.2253 13.0171 17.967 12.6005C17.692 12.1505 17.2253 11.8921 16.717 11.8921Z" fill="#4A555C"/>
</svg>
