<svg width="36" height="36" viewBox="0 0 36 36" fill="none" xmlns="http://www.w3.org/2000/svg">
<rect x="0.5" y="0.5" width="35" height="35" rx="17.5" fill="#FFF3E8"/>
<rect x="0.5" y="0.5" width="35" height="35" rx="17.5" stroke="#FF8516"/>
<path d="M15.5004 19.8496H11.267C10.7587 19.8496 10.292 20.1079 10.0254 20.5413C9.75871 20.9663 9.73371 21.4746 9.95038 21.9246C10.9754 24.0246 12.8254 25.6746 15.0254 26.4496C15.1754 26.4996 15.342 26.5329 15.5004 26.5329C15.792 26.5329 16.0837 26.4413 16.3337 26.2663C16.7254 25.9913 16.9587 25.5413 16.9587 25.0663L16.967 21.3163C16.967 20.9246 16.817 20.5579 16.542 20.2829C16.2587 20.0079 15.892 19.8496 15.5004 19.8496Z" fill="#FF8516"/>
<path d="M26.7329 16.0003C25.7996 11.9003 22.2079 9.04199 17.9996 9.04199C13.7913 9.04199 10.1996 11.9003 9.26628 16.0003C9.16628 16.4337 9.26628 16.8753 9.54961 17.2253C9.83295 17.5753 10.2496 17.7753 10.6996 17.7753H25.3079C25.7579 17.7753 26.1746 17.5753 26.4579 17.2253C26.7329 16.8753 26.8329 16.4253 26.7329 16.0003Z" fill="#FF8516"/>
<path d="M24.717 19.8921L20.5003 19.8838C20.1087 19.8838 19.742 20.0338 19.467 20.3088C19.192 20.5838 19.042 20.9505 19.042 21.3421L19.0503 25.0755C19.0503 25.5505 19.2837 26.0005 19.6753 26.2755C19.9253 26.4505 20.217 26.5421 20.5087 26.5421C20.667 26.5421 20.8253 26.5171 20.9753 26.4588C23.1587 25.6921 25.0087 24.0505 26.0337 21.9755C26.2503 21.5338 26.2253 21.0171 25.967 20.6005C25.692 20.1505 25.2253 19.8921 24.717 19.8921Z" fill="#FF8516"/>
</svg>
