<svg width="20" height="20" viewBox="0 0 20 20" fill="none" xmlns="http://www.w3.org/2000/svg">
<path d="M10.0003 1.66699C5.40866 1.66699 1.66699 5.40866 1.66699 10.0003C1.66699 14.592 5.40866 18.3337 10.0003 18.3337C14.592 18.3337 18.3337 14.592 18.3337 10.0003C18.3337 5.40866 14.592 1.66699 10.0003 1.66699ZM6.66699 10.8337C6.20033 10.8337 5.83366 10.4587 5.83366 10.0003C5.83366 9.54199 6.20866 9.16699 6.66699 9.16699C7.12533 9.16699 7.50033 9.54199 7.50033 10.0003C7.50033 10.4587 7.13366 10.8337 6.66699 10.8337ZM10.0003 10.8337C9.53366 10.8337 9.16699 10.4587 9.16699 10.0003C9.16699 9.54199 9.54199 9.16699 10.0003 9.16699C10.4587 9.16699 10.8337 9.54199 10.8337 10.0003C10.8337 10.4587 10.467 10.8337 10.0003 10.8337ZM13.3337 10.8337C12.867 10.8337 12.5003 10.4587 12.5003 10.0003C12.5003 9.54199 12.8753 9.16699 13.3337 9.16699C13.792 9.16699 14.167 9.54199 14.167 10.0003C14.167 10.4587 13.8003 10.8337 13.3337 10.8337Z" fill="#FF8516"/>
</svg>
