<svg width="36" height="36" viewBox="0 0 36 36" fill="none" xmlns="http://www.w3.org/2000/svg">
<path d="M18.0003 9.66699C13.4087 9.66699 9.66699 13.4087 9.66699 18.0003C9.66699 22.592 13.4087 26.3337 18.0003 26.3337C22.592 26.3337 26.3337 22.592 26.3337 18.0003C26.3337 13.4087 22.592 9.66699 18.0003 9.66699ZM14.667 18.8337C14.2003 18.8337 13.8337 18.4587 13.8337 18.0003C13.8337 17.542 14.2087 17.167 14.667 17.167C15.1253 17.167 15.5003 17.542 15.5003 18.0003C15.5003 18.4587 15.1337 18.8337 14.667 18.8337ZM18.0003 18.8337C17.5337 18.8337 17.167 18.4587 17.167 18.0003C17.167 17.542 17.542 17.167 18.0003 17.167C18.4587 17.167 18.8337 17.542 18.8337 18.0003C18.8337 18.4587 18.467 18.8337 18.0003 18.8337ZM21.3337 18.8337C20.867 18.8337 20.5003 18.4587 20.5003 18.0003C20.5003 17.542 20.8753 17.167 21.3337 17.167C21.792 17.167 22.167 17.542 22.167 18.0003C22.167 18.4587 21.8003 18.8337 21.3337 18.8337Z" fill="#292D32"/>
</svg>
