<svg width="16" height="16" viewBox="0 0 16 16" fill="none" xmlns="http://www.w3.org/2000/svg">
<path d="M14.1597 5.20497V5.20634V10.793C14.1597 11.9069 13.8296 12.736 13.2795 13.2861C12.7293 13.8362 11.9002 14.1663 10.7863 14.1663H5.20634C4.09245 14.1663 3.26351 13.8363 2.71345 13.2855C2.16332 12.7347 1.83301 11.9039 1.83301 10.7863V5.20634C1.83301 4.09244 2.1631 3.26335 2.71323 2.71323C3.26335 2.1631 4.09244 1.83301 5.20634 1.83301H10.793C11.907 1.83301 12.7359 2.16314 13.2851 2.71301C13.8341 3.26276 14.1627 4.09139 14.1597 5.20497ZM11.2148 8.4888L11.1776 8.47639C11.2283 8.4468 11.2762 8.41026 11.3199 8.36657L11.3218 8.36465L11.9332 7.74656C11.9336 7.74624 11.9339 7.74592 11.9342 7.7456C12.4891 7.19035 12.8305 6.59354 12.8396 5.93328L12.8397 5.93329V5.92634C12.8397 5.2387 12.4995 4.63235 11.9399 4.07279C11.393 3.52586 10.7842 3.17727 10.1097 3.17385C9.43388 3.17042 8.8182 3.51405 8.25945 4.07279L7.64754 4.68471C7.59179 4.73671 7.54778 4.79521 7.51447 4.85734L7.5054 4.83351L6.95946 5.37946L3.98878 8.35013C3.83901 8.49591 3.71488 8.68328 3.62347 8.86407C3.53118 9.04659 3.45473 9.25708 3.42494 9.46061L3.42466 9.46258L3.1916 11.1006C3.11927 11.584 3.24351 12.0706 3.59279 12.4199C3.88029 12.7074 4.26784 12.8397 4.65301 12.8397C4.74122 12.8397 4.82511 12.8303 4.88059 12.8241L4.88822 12.8233L4.89584 12.8224L4.90344 12.8214L6.54344 12.588L6.54344 12.588L6.54718 12.5875C6.74972 12.5571 6.96049 12.4777 7.14043 12.3862C7.32048 12.2947 7.50804 12.1715 7.65253 12.0273C7.65277 12.027 7.653 12.0268 7.65323 12.0266L10.6387 9.06108L11.2148 8.4888Z" fill="white" stroke="white"/>
</svg>
