<svg width="20" height="20" viewBox="0 0 20 20" fill="none" xmlns="http://www.w3.org/2000/svg">
<path d="M9.94967 1.84185L7.94134 6.51685H5.93301C5.59967 6.51685 5.27467 6.54185 4.95801 6.60852L5.79134 4.60852L5.82467 4.53352L5.87467 4.40018C5.89967 4.34185 5.91634 4.29185 5.94134 4.25018C6.90801 2.00852 7.99134 1.30852 9.94967 1.84185Z" fill="#4A555C"/>
<path d="M15.6079 6.74128L15.5913 6.73294C15.0913 6.59128 14.5829 6.51628 14.0663 6.51628H8.84961L10.7246 2.15794L10.7496 2.09961C10.8663 2.14128 10.9913 2.19961 11.1163 2.24128L12.9579 3.01628C13.9829 3.44128 14.6996 3.88294 15.1413 4.41628C15.2163 4.51628 15.2829 4.60794 15.3496 4.71628C15.4246 4.83294 15.4829 4.94961 15.5163 5.07461C15.5496 5.14961 15.5746 5.21628 15.5913 5.29128C15.7163 5.71628 15.7246 6.19961 15.6079 6.74128Z" fill="#4A555C"/>
<path d="M10.4336 14.7167H10.6419C10.8919 14.7167 11.1003 14.4917 11.1003 14.2167C11.1003 13.8667 11.0003 13.8167 10.7836 13.7334L10.4336 13.6084V14.7167Z" fill="#4A555C"/>
<path d="M15.2412 7.93327C14.8662 7.82494 14.4745 7.7666 14.0662 7.7666H5.93288C5.36621 7.7666 4.83288 7.87494 4.33288 8.0916C2.88288 8.7166 1.86621 10.1583 1.86621 11.8333V13.4583C1.86621 13.6583 1.88288 13.8499 1.90788 14.0499C2.09121 16.6999 3.50788 18.1166 6.15788 18.2916C6.34954 18.3166 6.54121 18.3333 6.74954 18.3333H13.2495C16.3329 18.3333 17.9579 16.8666 18.1162 13.9499C18.1245 13.7916 18.1329 13.6249 18.1329 13.4583V11.8333C18.1329 9.9916 16.9079 8.4416 15.2412 7.93327ZM11.0662 12.9166C11.4495 13.0499 11.9662 13.3333 11.9662 14.2166C11.9662 14.9749 11.3745 15.5833 10.6412 15.5833H10.4329V15.7666C10.4329 16.0083 10.2412 16.1999 9.99954 16.1999C9.75788 16.1999 9.56621 16.0083 9.56621 15.7666V15.5833H9.49121C8.69121 15.5833 8.03288 14.9083 8.03288 14.0749C8.03288 13.8333 8.22454 13.6416 8.46621 13.6416C8.70788 13.6416 8.89954 13.8333 8.89954 14.0749C8.89954 14.4249 9.16621 14.7166 9.49121 14.7166H9.56621V13.3083L8.93288 13.0833C8.54954 12.9499 8.03288 12.6666 8.03288 11.7833C8.03288 11.0249 8.62454 10.4166 9.35788 10.4166H9.56621V10.2333C9.56621 9.9916 9.75788 9.79994 9.99954 9.79994C10.2412 9.79994 10.4329 9.9916 10.4329 10.2333V10.4166H10.5079C11.3079 10.4166 11.9662 11.0916 11.9662 11.9249C11.9662 12.1666 11.7745 12.3583 11.5329 12.3583C11.2912 12.3583 11.0995 12.1666 11.0995 11.9249C11.0995 11.5749 10.8329 11.2833 10.5079 11.2833H10.4329V12.6916L11.0662 12.9166Z" fill="#4A555C"/>
<path d="M8.90039 11.7832C8.90039 12.1332 9.00039 12.1832 9.21706 12.2665L9.56706 12.3915V11.2832H9.35872C9.10039 11.2832 8.90039 11.5082 8.90039 11.7832Z" fill="#4A555C"/>
</svg>
