<svg width="36" height="36" viewBox="0 0 36 36" fill="none" xmlns="http://www.w3.org/2000/svg">
<path d="M25.3586 14.6753L19.9003 10.3087C18.8336 9.45867 17.167 9.45034 16.1086 10.3003L10.6503 14.6753C9.86696 15.3003 9.39196 16.5503 9.55863 17.5337L10.6086 23.817C10.8503 25.2253 12.1586 26.3337 13.5836 26.3337H22.417C23.8253 26.3337 25.1586 25.2003 25.4003 23.8087L26.4503 17.5253C26.6003 16.5503 26.1253 15.3003 25.3586 14.6753ZM18.6253 23.0003C18.6253 23.342 18.342 23.6253 18.0003 23.6253C17.6586 23.6253 17.3753 23.342 17.3753 23.0003V20.5003C17.3753 20.1587 17.6586 19.8753 18.0003 19.8753C18.342 19.8753 18.6253 20.1587 18.6253 20.5003V23.0003Z" fill="#4A555C"/>
</svg>
