<svg width="20" height="20" viewBox="0 0 20 20" fill="none" xmlns="http://www.w3.org/2000/svg">
<path d="M14.333 10.333C12.1247 10.333 10.333 12.1247 10.333 14.333C10.333 15.083 10.5413 15.7913 10.9163 16.3913C11.608 17.5497 12.8747 18.333 14.333 18.333C15.7913 18.333 17.0663 17.5497 17.7497 16.3913C18.1163 15.7913 18.333 15.083 18.333 14.333C18.333 12.1247 16.5413 10.333 14.333 10.333ZM16.3163 13.808L14.183 15.7747C14.0663 15.883 13.908 15.9413 13.758 15.9413C13.5997 15.9413 13.4413 15.883 13.3163 15.758L12.333 14.7747C12.0913 14.533 12.0913 14.133 12.333 13.8913C12.5747 13.6497 12.9747 13.6497 13.2163 13.8913L13.7747 14.4497L15.4663 12.883C15.7163 12.6497 16.1163 12.6663 16.3497 12.9163C16.583 13.1747 16.5663 13.5747 16.3163 13.808Z" fill="#4A555C"/>
<path d="M18.3337 7.27454C18.3337 8.26621 18.1753 9.18288 17.9003 10.0329C17.8503 10.2079 17.642 10.2579 17.492 10.1495C16.5837 9.47454 15.4753 9.11621 14.3337 9.11621C11.442 9.11621 9.08366 11.4745 9.08366 14.3662C9.08366 15.2662 9.31699 16.1495 9.75866 16.9329C9.89199 17.1662 9.73366 17.4662 9.48366 17.3745C7.47533 16.6912 3.41699 14.1995 2.10033 10.0329C1.82533 9.18288 1.66699 8.26621 1.66699 7.27454C1.66699 4.69954 3.74199 2.61621 6.30033 2.61621C7.80866 2.61621 9.15866 3.34954 10.0003 4.47454C10.842 3.34954 12.192 2.61621 13.7003 2.61621C16.2587 2.61621 18.3337 4.69954 18.3337 7.27454Z" fill="#4A555C"/>
</svg>
