<svg width="20" height="20" viewBox="0 0 20 20" fill="none" xmlns="http://www.w3.org/2000/svg">
<g clip-path="url(#clip0_2204_5329)">
<path d="M6.3748 17.4245C6.3498 17.4245 6.31647 17.4412 6.29147 17.4412C4.6748 16.6412 3.35814 15.3162 2.5498 13.6995C2.5498 13.6745 2.56647 13.6412 2.56647 13.6162C3.58314 13.9162 4.63314 14.1412 5.6748 14.3162C5.85814 15.3662 6.0748 16.4079 6.3748 17.4245Z" fill="#4A555C"/>
<path d="M17.4502 13.7079C16.6252 15.3662 15.2502 16.7079 13.5752 17.5162C13.8919 16.4579 14.1585 15.3912 14.3335 14.3162C15.3835 14.1412 16.4169 13.9162 17.4335 13.6162C17.4252 13.6495 17.4502 13.6829 17.4502 13.7079Z" fill="#4A555C"/>
<path d="M17.5169 6.42507C16.4669 6.1084 15.4085 5.85007 14.3335 5.66673C14.1585 4.59173 13.9002 3.52507 13.5752 2.4834C15.3002 3.3084 16.6919 4.70007 17.5169 6.42507Z" fill="#4A555C"/>
<path d="M6.37507 2.5748C6.07507 3.59147 5.8584 4.6248 5.6834 5.6748C4.6084 5.84147 3.54173 6.10814 2.4834 6.4248C3.29173 4.7498 4.6334 3.3748 6.29173 2.5498C6.31673 2.5498 6.35006 2.5748 6.37507 2.5748Z" fill="#4A555C"/>
<path d="M12.9085 5.49199C10.9751 5.27533 9.02513 5.27533 7.0918 5.49199C7.30013 4.35033 7.5668 3.20866 7.9418 2.10866C7.95846 2.04199 7.95013 1.99199 7.95846 1.92533C8.6168 1.76699 9.2918 1.66699 10.0001 1.66699C10.7001 1.66699 11.3835 1.76699 12.0335 1.92533C12.0418 1.99199 12.0418 2.04199 12.0585 2.10866C12.4335 3.21699 12.7001 4.35033 12.9085 5.49199Z" fill="#4A555C"/>
<path d="M5.49199 12.9085C4.34199 12.7001 3.20866 12.4335 2.10866 12.0585C2.04199 12.0418 1.99199 12.0501 1.92533 12.0418C1.76699 11.3835 1.66699 10.7085 1.66699 10.0001C1.66699 9.30013 1.76699 8.6168 1.92533 7.9668C1.99199 7.95846 2.04199 7.95846 2.10866 7.9418C3.21699 7.57513 4.34199 7.30013 5.49199 7.0918C5.28366 9.02513 5.28366 10.9751 5.49199 12.9085Z" fill="#4A555C"/>
<path d="M18.3338 10.0001C18.3338 10.7085 18.2338 11.3835 18.0755 12.0418C18.0088 12.0501 17.9588 12.0418 17.8921 12.0585C16.7838 12.4251 15.6505 12.7001 14.5088 12.9085C14.7255 10.9751 14.7255 9.02513 14.5088 7.0918C15.6505 7.30013 16.7921 7.5668 17.8921 7.9418C17.9588 7.95846 18.0088 7.9668 18.0755 7.9668C18.2338 8.62513 18.3338 9.30013 18.3338 10.0001Z" fill="#4A555C"/>
<path d="M12.9085 14.5088C12.7001 15.6588 12.4335 16.7921 12.0585 17.8921C12.0418 17.9588 12.0418 18.0088 12.0335 18.0755C11.3835 18.2338 10.7001 18.3338 10.0001 18.3338C9.2918 18.3338 8.6168 18.2338 7.95846 18.0755C7.95013 18.0088 7.95846 17.9588 7.9418 17.8921C7.57513 16.7838 7.30013 15.6588 7.0918 14.5088C8.05846 14.6171 9.02513 14.6921 10.0001 14.6921C10.9751 14.6921 11.9501 14.6171 12.9085 14.5088Z" fill="#4A555C"/>
<path d="M13.1364 13.1364C11.0522 13.3994 8.94846 13.3994 6.86422 13.1364C6.60125 11.0522 6.60125 8.94846 6.86422 6.86422C8.94846 6.60125 11.0522 6.60125 13.1364 6.86422C13.3994 8.94846 13.3994 11.0522 13.1364 13.1364Z" fill="#4A555C"/>
</g>
<defs>
<clipPath id="clip0_2204_5329">
<rect width="20" height="20" fill="white"/>
</clipPath>
</defs>
</svg>
