<svg width="36" height="36" viewBox="0 0 36 36" fill="none" xmlns="http://www.w3.org/2000/svg">
<path d="M20.5003 20.9167C20.5003 23.9083 18.0753 26.3333 15.0837 26.3333C12.092 26.3333 9.66699 23.9083 9.66699 20.9167C9.66699 17.925 12.092 15.5 15.0837 15.5C15.2253 15.5 15.3753 15.5083 15.517 15.5167C18.1587 15.725 20.2753 17.8417 20.4837 20.4833C20.492 20.625 20.5003 20.775 20.5003 20.9167Z" fill="#4A555C"/>
<path d="M26.3331 15.0837C26.3331 17.8003 24.3331 20.042 21.7331 20.4337V20.3837C21.4747 17.1503 18.8497 14.5253 15.5914 14.267H15.5664C15.9581 11.667 18.1997 9.66699 20.9164 9.66699C23.9081 9.66699 26.3331 12.092 26.3331 15.0837Z" fill="#4A555C"/>
<path d="M12.6587 9.66699H10.5003C10.042 9.66699 9.66699 10.042 9.66699 10.5003V12.6587C9.66699 13.4003 10.567 13.7753 11.092 13.2503L13.2503 11.092C13.767 10.567 13.4003 9.66699 12.6587 9.66699Z" fill="#4A555C"/>
<path d="M23.3418 26.3332H25.5001C25.9584 26.3332 26.3334 25.9582 26.3334 25.4999V23.3416C26.3334 22.5999 25.4334 22.2249 24.9084 22.7499L22.7501 24.9082C22.2334 25.4332 22.6001 26.3332 23.3418 26.3332Z" fill="#4A555C"/>
</svg>
