<svg width="40" height="40" viewBox="0 0 40 40" fill="none" xmlns="http://www.w3.org/2000/svg">
<rect x="0.5" y="0.5" width="39" height="39" rx="19.5" fill="#EEEDFF"/>
<rect x="0.5" y="0.5" width="39" height="39" rx="19.5" stroke="#9747FF"/>
<path d="M24.6079 16.4753C24.5495 16.467 24.4912 16.467 24.4329 16.4753C23.1412 16.4337 22.1162 15.3753 22.1162 14.0753C22.1162 12.7503 23.1912 11.667 24.5245 11.667C25.8495 11.667 26.9329 12.742 26.9329 14.0753C26.9245 15.3753 25.8995 16.4337 24.6079 16.4753Z" fill="#9747FF"/>
<path d="M27.3247 22.2503C26.3913 22.8753 25.083 23.1087 23.8747 22.9503C24.1913 22.267 24.358 21.5087 24.3663 20.7087C24.3663 19.8753 24.183 19.0837 23.833 18.392C25.0663 18.2253 26.3747 18.4587 27.3163 19.0837C28.633 19.9503 28.633 21.3753 27.3247 22.2503Z" fill="#9747FF"/>
<path d="M15.3665 16.4753C15.4248 16.467 15.4831 16.467 15.5415 16.4753C16.8331 16.4337 17.8581 15.3753 17.8581 14.0753C17.8581 12.742 16.7831 11.667 15.4498 11.667C14.1248 11.667 13.0498 12.742 13.0498 14.0753C13.0498 15.3753 14.0748 16.4337 15.3665 16.4753Z" fill="#9747FF"/>
<path d="M15.4579 20.7079C15.4579 21.5162 15.6329 22.2829 15.9496 22.9745C14.7746 23.0995 13.5496 22.8495 12.6496 22.2579C11.3329 21.3829 11.3329 19.9578 12.6496 19.0828C13.5413 18.4828 14.7996 18.2412 15.9829 18.3745C15.6413 19.0745 15.4579 19.8662 15.4579 20.7079Z" fill="#9747FF"/>
<path d="M20.1 23.225C20.0333 23.2167 19.9583 23.2167 19.8833 23.225C18.35 23.175 17.125 21.9167 17.125 20.3667C17.1333 18.7833 18.4083 17.5 20 17.5C21.5833 17.5 22.8667 18.7833 22.8667 20.3667C22.8583 21.9167 21.6417 23.175 20.1 23.225Z" fill="#9747FF"/>
<path d="M17.392 24.9502C16.1337 25.7919 16.1337 27.1752 17.392 28.0085C18.8253 28.9669 21.1753 28.9669 22.6087 28.0085C23.867 27.1669 23.867 25.7835 22.6087 24.9502C21.1837 23.9919 18.8337 23.9919 17.392 24.9502Z" fill="#9747FF"/>
</svg>
