<svg width="40" height="40" viewBox="0 0 40 40" fill="none" xmlns="http://www.w3.org/2000/svg">
<rect x="0.5" y="0.5" width="39" height="39" rx="19.5" fill="#FFF3E8"/>
<rect x="0.5" y="0.5" width="39" height="39" rx="19.5" stroke="#FF8516"/>
<path d="M23.492 11.667H16.5087C13.4753 11.667 11.667 13.4753 11.667 16.5087V23.4837C11.667 26.5253 13.4753 28.3337 16.5087 28.3337H23.4837C26.517 28.3337 28.3253 26.5253 28.3253 23.492V16.5087C28.3337 13.4753 26.5253 11.667 23.492 11.667ZM24.167 24.5587C22.742 24.5587 21.4087 23.942 20.342 22.8003C19.1337 23.892 17.5587 24.5587 15.8337 24.5587C15.492 24.5587 15.2087 24.2753 15.2087 23.9337C15.2087 23.592 15.492 23.3087 15.8337 23.3087C18.7253 23.3087 21.117 21.017 21.4253 18.0837H20.0003H15.842C15.5003 18.0837 15.217 17.8003 15.217 17.4587C15.217 17.117 15.5003 16.842 15.842 16.842H19.3753V16.067C19.3753 15.7253 19.6587 15.442 20.0003 15.442C20.342 15.442 20.6253 15.7253 20.6253 16.067V16.842H22.0337C22.0503 16.842 22.067 16.8337 22.0837 16.8337C22.1003 16.8337 22.117 16.842 22.1337 16.842H24.1587C24.5003 16.842 24.7837 17.1253 24.7837 17.467C24.7837 17.8087 24.5003 18.092 24.1587 18.092H22.6753C22.5503 19.517 22.017 20.8253 21.2003 21.892C22.0337 22.817 23.0753 23.317 24.167 23.317C24.5087 23.317 24.792 23.6003 24.792 23.942C24.792 24.2837 24.5087 24.5587 24.167 24.5587Z" fill="#FF8516"/>
</svg>
