<svg width="40" height="40" viewBox="0 0 40 40" fill="none" xmlns="http://www.w3.org/2000/svg">
<rect x="0.5" y="0.5" width="39" height="39" rx="19.5" fill="#EAF7FF"/>
<rect x="0.5" y="0.5" width="39" height="39" rx="19.5" stroke="#0099FF"/>
<path d="M21.667 23.3329C21.667 24.8079 21.0253 26.1412 20.0003 27.0495C19.117 27.8495 17.9503 28.3329 16.667 28.3329C13.9087 28.3329 11.667 26.0912 11.667 23.3329C11.667 21.6799 12.478 20.2115 13.7187 19.3031C13.9636 19.1239 14.2994 19.2436 14.4376 19.5137C15.2332 21.0698 16.6596 22.2328 18.3503 22.6912C18.8753 22.8412 19.4253 22.9162 20.0003 22.9162C20.3744 22.9162 20.7339 22.8835 21.0837 22.823C21.3728 22.7729 21.6601 22.9576 21.6661 23.2509C21.6667 23.2783 21.667 23.3057 21.667 23.3329Z" fill="#0099FF"/>
<path d="M25 16.667C25 17.317 24.875 17.942 24.65 18.5087C24.075 19.9587 22.8417 21.0753 21.3167 21.492C20.9 21.6087 20.4583 21.667 20 21.667C19.5417 21.667 19.1 21.6087 18.6833 21.492C17.1583 21.0753 15.925 19.9587 15.35 18.5087C15.125 17.942 15 17.317 15 16.667C15 13.9087 17.2417 11.667 20 11.667C22.7583 11.667 25 13.9087 25 16.667Z" fill="#0099FF"/>
<path d="M28.3337 23.3329C28.3337 26.0912 26.092 28.3329 23.3337 28.3329C22.7539 28.3329 22.1947 28.2341 21.6763 28.051C21.3548 27.9375 21.295 27.5294 21.512 27.2664C22.4168 26.1694 22.917 24.782 22.917 23.3329C22.917 23.0495 22.892 22.7662 22.8503 22.4995C22.8255 22.3458 22.904 22.1947 23.0402 22.1193C24.1159 21.5238 24.9993 20.6192 25.5633 19.5146C25.7014 19.2441 26.0375 19.1241 26.2825 19.3035C27.5229 20.212 28.3337 21.6801 28.3337 23.3329Z" fill="#0099FF"/>
</svg>
