<svg width="40" height="40" viewBox="0 0 40 40" fill="none" xmlns="http://www.w3.org/2000/svg">
<path d="M20 38C29.9411 38 38 29.9411 38 20C38 10.0589 29.9411 2 20 2C10.0589 2 2 10.0589 2 20C2 29.9411 10.0589 38 20 38Z" fill="#197FB7"/>
<path d="M15.5838 17.4268H12.5078V27.1712H15.5838V17.4268Z" fill="white"/>
<path d="M23.9871 17.333C22.2247 17.333 21.1211 18.2878 20.9163 18.9562V17.427H17.4619C17.5055 18.239 17.4619 27.1714 17.4619 27.1714H20.9163V21.8986C20.9163 21.6054 20.9027 21.3126 20.9923 21.1022C21.2299 20.5166 21.7399 19.9082 22.6571 19.9082C23.8563 19.9082 24.4015 20.8094 24.4015 22.129V27.1714H27.8899V21.753C27.8903 18.735 26.1727 17.333 23.9871 17.333Z" fill="white"/>
<path d="M13.9888 12.8271C12.8532 12.8271 12.1104 13.5563 12.1104 14.5187C12.1104 15.4631 12.832 16.2083 13.946 16.2083H13.9676C15.124 16.2083 15.8436 15.4607 15.8436 14.5167C15.8216 13.5547 15.1236 12.8271 13.9888 12.8271Z" fill="white"/>
</svg>
