<svg width="40" height="40" viewBox="0 0 40 40" fill="none" xmlns="http://www.w3.org/2000/svg">
<rect x="0.5" y="0.5" width="39" height="39" rx="19.5" fill="#FDFFED"/>
<rect x="0.5" y="0.5" width="39" height="39" rx="19.5" stroke="#BDD400"/>
<path d="M25.666 18.2578C24.7243 18.2578 23.8827 18.7161 23.3577 19.4161C22.8327 18.7161 21.991 18.2578 21.0493 18.2578C19.4577 18.2578 18.166 19.5578 18.166 21.1578C18.166 21.7745 18.266 22.3495 18.4327 22.8745C19.2493 25.4661 21.7827 27.0245 23.0327 27.4495C23.2077 27.5078 23.4993 27.5078 23.6743 27.4495C24.9243 27.0245 27.4577 25.4745 28.2743 22.8745C28.4493 22.3411 28.541 21.7745 28.541 21.1578C28.5493 19.5578 27.2577 18.2578 25.666 18.2578Z" fill="#BDD400"/>
<path d="M27.292 16.9497C27.292 17.1413 27.1003 17.2663 26.917 17.2163C25.792 16.9247 24.5587 17.1663 23.6253 17.833C23.442 17.9663 23.192 17.9663 23.017 17.833C22.3587 17.3497 21.5587 17.083 20.717 17.083C18.567 17.083 16.817 18.8413 16.817 21.008C16.817 23.358 17.942 25.1163 19.0753 26.2913C19.1337 26.3497 19.0837 26.4497 19.0087 26.4163C16.7337 25.6413 11.667 22.4247 11.667 16.9497C11.667 14.533 13.6087 12.583 16.0087 12.583C17.4337 12.583 18.692 13.2663 19.4837 14.3247C20.2837 13.2663 21.542 12.583 22.9587 12.583C25.3503 12.583 27.292 14.533 27.292 16.9497Z" fill="#BDD400"/>
</svg>
