<svg width="40" height="40" viewBox="0 0 40 40" fill="none" xmlns="http://www.w3.org/2000/svg">
<path d="M20.0001 1.53613C9.80253 1.53613 1.53613 9.80253 1.53613 20.0001C1.53613 30.1977 9.80253 38.4641 20.0001 38.4641C30.1977 38.4641 38.4641 30.1977 38.4641 20.0001C38.4641 9.80253 30.1977 1.53613 20.0001 1.53613ZM29.5549 15.1957C29.2025 15.5281 28.7629 16.1253 28.3121 16.3125C28.3989 16.7217 28.3117 17.1961 28.2297 17.6057C28.1361 18.0725 28.2113 18.5821 28.0681 19.0333C27.9161 19.5125 27.8713 20.0089 27.7109 20.4869C27.5257 21.0389 27.1981 21.6153 26.8789 22.0957C26.6029 22.5113 26.4129 22.9545 26.1473 23.3665C25.8413 23.8405 25.4197 24.1385 25.0621 24.5377C24.5265 25.1353 23.7793 25.6309 23.0889 26.0961C22.5177 26.4805 21.8513 26.6477 21.2253 26.9325C20.9801 27.0441 20.6829 27.1365 20.4149 27.2057C20.1733 27.2677 19.7657 27.4197 19.5061 27.4197L19.0389 27.5001C18.8497 27.5173 18.3757 27.4813 18.1301 27.4977C17.8849 27.5133 17.6489 27.4449 17.3977 27.4457C16.7821 27.4469 16.1653 27.4269 15.5593 27.3473C14.5037 27.2085 13.2869 26.7361 12.4177 26.1153C12.2609 26.0033 12.1417 25.8453 11.9861 25.7309C12.8965 25.9445 14.0449 25.9105 14.9121 25.5229C15.3929 25.3077 15.9385 25.2125 16.3701 24.9085C16.7017 24.6741 17.0897 24.4221 17.4273 24.2321C16.6481 24.1593 15.9289 23.9321 15.2213 23.5581C14.8725 23.3741 13.9505 22.3569 13.9545 21.5821C14.4957 21.5721 14.9833 21.6449 15.5321 21.5721C15.1449 21.4693 14.8229 21.3005 14.4685 21.0645C14.0693 20.7993 13.7349 20.6025 13.3217 20.1513C12.8361 19.6217 12.6793 18.6041 12.7341 17.8689C12.9845 17.8937 13.1937 18.0533 13.4369 18.1261C13.6885 18.2009 13.9865 18.1905 14.2261 18.3089C13.4293 18.0497 13.0193 16.7777 12.8137 16.0685C12.5741 15.2433 13.0825 13.3741 13.0993 13.3257C13.7205 13.7977 14.1757 14.5093 14.8005 14.9397C15.1621 15.1885 15.5733 15.4637 15.9233 15.7109C16.1009 15.8361 16.2353 15.8945 16.4157 16.0289C16.5729 16.1453 16.8129 16.2285 16.9877 16.3073C17.4377 16.5097 17.9989 16.7309 18.4933 16.8213C19.0737 16.9277 19.6877 16.9509 20.2329 17.1389L20.8821 17.2165C20.7021 16.5057 20.8005 15.5593 21.0181 14.8289C21.2697 13.9849 22.1297 13.2641 22.9009 12.9001C23.6201 12.5605 24.8057 12.4085 25.5553 12.6977C25.9389 12.8457 26.3357 13.0205 26.6921 13.2189C27.0245 13.4041 27.1873 13.8309 27.5541 13.7837C28.1997 13.7001 29.1893 13.3005 29.5805 12.7337C29.5645 13.7325 28.9757 14.3205 28.2309 14.9265C28.8401 14.7485 29.5649 14.6973 30.1469 14.4405C29.9909 14.7537 29.8109 14.9549 29.5549 15.1957Z" fill="#1DA1F2"/>
</svg>
