<svg width="40" height="40" viewBox="0 0 40 40" fill="none" xmlns="http://www.w3.org/2000/svg">
<g clip-path="url(#clip0_2181_14685)">
<path d="M12.2744 14.7635H14.4961C14.7515 13.6917 15.0829 12.7062 15.4762 11.835C14.7246 12.2528 14.0266 12.7775 13.4018 13.4022C12.9796 13.8245 12.6032 14.2804 12.2744 14.7635Z" fill="black"/>
<path d="M12.2744 25.2363C12.6033 25.7194 12.9796 26.1753 13.4018 26.5976C14.0266 27.2223 14.7246 27.747 15.4762 28.1648C15.0828 27.2936 14.7515 26.3081 14.4961 25.2363H12.2744Z" fill="black"/>
<path d="M27.7252 14.7635C27.3963 14.2804 27.0201 13.8245 26.5978 13.4022C25.973 12.7775 25.275 12.2528 24.5234 11.835C24.9169 12.7062 25.2481 13.6917 25.5035 14.7635H27.7252Z" fill="black"/>
<path d="M21.7539 12.6596C21.0018 11.1555 20.2474 10.6689 19.9998 10.6689C19.7522 10.6689 18.9978 11.1555 18.2457 12.6596C17.9343 13.2826 17.6669 13.9923 17.4482 14.7632H22.5514C22.3326 13.9923 22.0654 13.2825 21.7539 12.6596Z" fill="black"/>
<path d="M18.2457 27.3399C18.9978 28.844 19.7522 29.3305 19.9998 29.3305C20.2474 29.3305 21.0018 28.844 21.7539 27.3399C22.0654 26.7169 22.3327 26.0072 22.5514 25.2363H17.4482C17.667 26.0072 17.9343 26.717 18.2457 27.3399Z" fill="black"/>
<path d="M13.9063 19.9995C13.9063 19.1848 13.9466 18.3891 14.0229 17.6191H10.9743C10.7733 18.3867 10.6689 19.185 10.6689 19.9995C10.6689 20.8141 10.7732 21.6123 10.9743 22.3799H14.0229C13.9466 21.61 13.9063 20.8142 13.9063 19.9995Z" fill="black"/>
<path d="M26.0941 19.9995C26.0941 20.8142 26.0538 21.61 25.9775 22.3799H29.0261C29.2271 21.6123 29.3314 20.8141 29.3314 19.9995C29.3314 19.185 29.2271 18.3867 29.0261 17.6191H25.9775C26.0538 18.3891 26.0941 19.1848 26.0941 19.9995Z" fill="black"/>
<path d="M20 0C8.9543 0 0 8.9543 0 20C0 31.0457 8.9543 40 20 40C31.0457 40 40 31.0457 40 20C40 8.9543 31.0457 0 20 0ZM20 32.1875C13.2691 32.1875 7.8125 26.7309 7.8125 20C7.8125 13.2691 13.2691 7.8125 20 7.8125C26.7309 7.8125 32.1875 13.2691 32.1875 20C32.1875 26.7309 26.7309 32.1875 20 32.1875Z" fill="black"/>
<path d="M16.8966 17.6191C16.8087 18.3927 16.7627 19.1916 16.7627 19.9995C16.7627 20.8075 16.8087 21.6064 16.8966 22.3799H23.1034C23.1913 21.6064 23.2373 20.8075 23.2373 19.9995C23.2373 19.1916 23.1913 18.3927 23.1034 17.6191H16.8966Z" fill="black"/>
<path d="M24.5234 28.1648C25.275 27.747 25.973 27.2223 26.5978 26.5976C27.0201 26.1753 27.3963 25.7194 27.7252 25.2363H25.5035C25.2481 26.3081 24.9169 27.2936 24.5234 28.1648Z" fill="black"/>
</g>
<defs>
<clipPath id="clip0_2181_14685">
<rect width="40" height="40" fill="white"/>
</clipPath>
</defs>
</svg>
