<svg width="194" height="26" viewBox="0 0 194 26" fill="none" xmlns="http://www.w3.org/2000/svg">
<path fill-rule="evenodd" clip-rule="evenodd" d="M17.9004 14.0394C17.2256 16.4685 14.9979 18.2512 12.3538 18.2512C9.17478 18.2512 6.59766 15.6741 6.59766 12.495C6.59766 9.31601 9.17478 6.73889 12.3538 6.73889C14.9979 6.73889 17.2256 8.52165 17.9005 10.9507H38.9573C39.6321 8.52166 41.8598 6.73891 44.5039 6.73891C47.6829 6.73891 50.2601 9.31603 50.2601 12.4951C50.2601 15.6741 47.6829 18.2512 44.5039 18.2512C41.8598 18.2512 39.6321 16.4685 38.9573 14.0394H17.9004ZM12.3537 15.4433C13.982 15.4433 15.3019 14.1234 15.3019 12.4951C15.3019 10.8668 13.982 9.54679 12.3537 9.54679C10.7254 9.54679 9.40539 10.8668 9.40539 12.4951C9.40539 14.1234 10.7254 15.4433 12.3537 15.4433ZM44.5039 15.4434C46.1322 15.4434 47.4522 14.1234 47.4522 12.4951C47.4522 10.8668 46.1322 9.54681 44.5039 9.54681C42.8756 9.54681 41.5556 10.8668 41.5556 12.4951C41.5556 14.1234 42.8756 15.4434 44.5039 15.4434Z" fill="white"/>
<path fill-rule="evenodd" clip-rule="evenodd" d="M24.1914 8.42366C22.526 3.52467 17.8871 0 12.4249 0C5.56281 0 0 5.56281 0 12.4249C0 19.2869 5.56281 24.8498 12.4249 24.8498C17.8871 24.8498 22.526 21.3251 24.1914 16.4261H21.1726C19.6544 19.74 16.3085 22.0419 12.4249 22.0419C7.11361 22.0419 2.80793 17.7362 2.80793 12.4249C2.80793 7.11358 7.11361 2.8079 12.4249 2.8079C16.3085 2.8079 19.6543 5.10982 21.1726 8.42366H24.1914ZM32.8086 16.4261C34.474 21.3251 39.113 24.8498 44.5752 24.8498C51.4372 24.8498 57 19.2869 57 12.4249C57 5.56281 51.4372 0 44.5752 0C39.113 0 34.474 3.52467 32.8086 8.42366H35.8273C37.3456 5.10982 40.6915 2.8079 44.575 2.8079C49.8863 2.8079 54.192 7.11358 54.192 12.4249C54.192 17.7362 49.8863 22.0419 44.575 22.0419C40.6914 22.0419 37.3455 19.74 35.8273 16.4261H32.8086Z" fill="#FF8516"/>
<path d="M66.5938 24.9537V0H77.0681V3.20393H71.1532V10.382H75.805V13.5551H71.1532V21.8114H77.1297V24.9537H66.5938Z" fill="#FF8516"/>
<path d="M82.9441 25.2309C82.1431 25.2309 81.4551 25.0256 80.88 24.6148C80.3049 24.1835 79.8634 23.6495 79.5553 23.0128C79.2472 22.3556 79.0932 21.6779 79.0932 20.9796C79.0932 19.8705 79.2986 18.936 79.7093 18.1761C80.1201 17.4162 80.6644 16.7795 81.3421 16.2661C82.0199 15.7526 82.79 15.3111 83.6526 14.9414C84.5152 14.5512 85.3881 14.202 86.2712 13.894V12.3536C86.2712 11.8402 86.2302 11.4089 86.148 11.0597C86.0864 10.7106 85.9529 10.4436 85.7475 10.2587C85.5627 10.0739 85.2649 9.98147 84.8541 9.98147C84.505 9.98147 84.2174 10.0636 83.9915 10.2279C83.7861 10.3922 83.6321 10.6284 83.5294 10.9365C83.4473 11.224 83.3959 11.5629 83.3754 11.9531L83.3138 13.0314L79.3397 12.8773C79.4013 10.8235 79.9045 9.31398 80.8492 8.3487C81.8145 7.36287 83.2727 6.86996 85.2238 6.86996C87.0106 6.86996 88.3045 7.36287 89.1055 8.3487C89.927 9.33452 90.3378 10.6695 90.3378 12.3536V20.5791C90.3378 21.2363 90.348 21.8319 90.3686 22.3659C90.4096 22.8999 90.4507 23.3825 90.4918 23.8138C90.5534 24.2451 90.6048 24.6251 90.6458 24.9537H86.8874C86.8258 24.5429 86.7436 24.0808 86.6409 23.5674C86.5588 23.0334 86.4972 22.6431 86.4561 22.3967C86.2507 23.1155 85.8605 23.7727 85.2854 24.3683C84.7104 24.9434 83.9299 25.2309 82.9441 25.2309ZM84.4844 22.1194C84.7514 22.1194 84.9979 22.0578 85.2238 21.9346C85.4703 21.7908 85.6859 21.6265 85.8707 21.4417C86.0556 21.2568 86.1891 21.0925 86.2712 20.9488V15.9888C85.8194 16.2558 85.3881 16.5228 84.9773 16.7898C84.5871 17.0568 84.238 17.3546 83.9299 17.6832C83.6424 17.9913 83.4165 18.3302 83.2522 18.6998C83.1084 19.0695 83.0365 19.5008 83.0365 19.9937C83.0365 20.651 83.1597 21.1747 83.4062 21.5649C83.6732 21.9346 84.0326 22.1194 84.4844 22.1194Z" fill="#FF8516"/>
<path d="M93.5155 24.9537V7.14722H97.7052V9.88905C98.3213 8.84161 98.9375 8.09197 99.5536 7.64014C100.17 7.16776 100.848 6.93157 101.587 6.93157C101.71 6.93157 101.813 6.94184 101.895 6.96238C101.998 6.96238 102.111 6.97265 102.234 6.99319V11.337C101.987 11.2343 101.71 11.1521 101.402 11.0905C101.115 11.0084 100.817 10.9673 100.509 10.9673C99.9541 10.9673 99.4509 11.1008 98.9991 11.3678C98.5473 11.6348 98.116 12.0763 97.7052 12.6925V24.9537H93.5155Z" fill="#FF8516"/>
<path d="M109.428 25.1693C108.299 25.1693 107.405 24.9845 106.748 24.6148C106.112 24.2451 105.66 23.7111 105.393 23.0128C105.126 22.3145 104.992 21.4827 104.992 20.5175V9.91985H103.205V7.14722H104.992V1.81761H109.213V7.14722H111.924V9.91985H109.213V20.1478C109.213 20.7639 109.346 21.2055 109.613 21.4725C109.88 21.7189 110.281 21.8422 110.815 21.8422C111.041 21.8422 111.256 21.8319 111.462 21.8114C111.688 21.7908 111.903 21.7703 112.109 21.7497V24.9537C111.76 24.9947 111.349 25.0358 110.876 25.0769C110.425 25.1385 109.942 25.1693 109.428 25.1693Z" fill="#FF8516"/>
<path d="M114.574 24.9537V0H118.764V8.84161C119.38 8.22547 120.048 7.74283 120.766 7.39368C121.506 7.04453 122.307 6.86996 123.169 6.86996C123.888 6.86996 124.463 7.0548 124.895 7.42449C125.326 7.77363 125.644 8.24601 125.85 8.84161C126.055 9.43721 126.158 10.0842 126.158 10.7825V24.9537H121.968V11.6142C121.968 11.0803 121.886 10.6695 121.721 10.382C121.557 10.0944 121.239 9.95066 120.766 9.95066C120.479 9.95066 120.15 10.0328 119.781 10.1971C119.431 10.3614 119.093 10.5771 118.764 10.8441V24.9537H114.574Z" fill="#FF8516"/>
<path d="M129.502 24.9537L129.964 0H133.384L137.789 20.2402L142.225 0H145.614L146.076 24.9537H143.273L142.995 6.83916L138.775 24.9537H136.803L132.613 6.83916L132.336 24.9537H129.502Z" fill="white"/>
<path d="M152.828 25.2001C152.129 25.2001 151.513 25.005 150.979 24.6148C150.445 24.204 150.024 23.6906 149.716 23.0744C149.408 22.4378 149.254 21.7703 149.254 21.072C149.254 19.9629 149.439 19.0285 149.809 18.2685C150.178 17.5086 150.681 16.872 151.318 16.3585C151.975 15.8245 152.725 15.3624 153.567 14.9722C154.43 14.582 155.333 14.202 156.278 13.8323V12.5693C156.278 11.8504 156.237 11.2548 156.155 10.7825C156.073 10.3101 155.898 9.96093 155.631 9.73501C155.385 9.48856 155.005 9.36533 154.491 9.36533C154.039 9.36533 153.67 9.46802 153.382 9.6734C153.115 9.87878 152.92 10.1766 152.797 10.5668C152.674 10.9365 152.612 11.3781 152.612 11.8915V12.7849L149.346 12.6617C149.388 10.69 149.839 9.2421 150.702 8.31789C151.565 7.37314 152.9 6.90077 154.707 6.90077C156.473 6.90077 157.726 7.38341 158.465 8.3487C159.205 9.31398 159.574 10.7106 159.574 12.5384V20.6715C159.574 21.226 159.585 21.76 159.605 22.2735C159.646 22.7869 159.687 23.2696 159.728 23.7214C159.79 24.1527 159.841 24.5634 159.882 24.9537H156.863C156.802 24.6251 156.72 24.2143 156.617 23.7214C156.535 23.2079 156.473 22.7458 156.432 22.3351C156.227 23.0334 155.826 23.6906 155.231 24.3067C154.656 24.9023 153.855 25.2001 152.828 25.2001ZM154.122 22.3659C154.45 22.3659 154.758 22.2735 155.046 22.0886C155.333 21.9038 155.59 21.6984 155.816 21.4725C156.042 21.226 156.196 21.0309 156.278 20.8871V15.8348C155.765 16.1223 155.282 16.4099 154.83 16.6974C154.378 16.9849 153.978 17.293 153.629 17.6216C153.3 17.9297 153.033 18.2891 152.828 18.6998C152.643 19.0901 152.55 19.5419 152.55 20.0554C152.55 20.7742 152.684 21.339 152.951 21.7497C153.218 22.1605 153.608 22.3659 154.122 22.3659Z" fill="white"/>
<path d="M167.244 25.2001C166.32 25.2001 165.571 25.0256 164.995 24.6764C164.441 24.3273 164.03 23.8343 163.763 23.1977C163.517 22.561 163.394 21.8114 163.394 20.9488V9.33452H161.514V7.14722H163.394V1.94084H166.69V7.14722H169.555V9.33452H166.69V20.7331C166.69 21.4314 166.803 21.9346 167.029 22.2427C167.255 22.5302 167.686 22.674 168.323 22.674C168.487 22.674 168.672 22.6637 168.877 22.6431C169.103 22.6226 169.319 22.6021 169.524 22.5815V25.0153C169.113 25.0769 168.733 25.118 168.384 25.1385C168.035 25.1796 167.655 25.2001 167.244 25.2001Z" fill="white"/>
<path d="M176.906 25.2001C175.509 25.2001 174.431 24.9331 173.671 24.3991C172.911 23.8446 172.377 23.0436 172.069 21.9962C171.782 20.9282 171.638 19.6241 171.638 18.0837V14.0172C171.638 12.4358 171.792 11.1213 172.1 10.0739C172.408 9.02645 172.942 8.23574 173.702 7.70175C174.482 7.16776 175.55 6.90077 176.906 6.90077C178.405 6.90077 179.504 7.20884 180.202 7.82498C180.921 8.44112 181.394 9.33452 181.619 10.5052C181.845 11.6553 181.958 13.0416 181.958 14.6641V16.1121H174.934V19.6857C174.934 20.4045 174.996 20.9898 175.119 21.4417C175.263 21.8935 175.479 22.2324 175.766 22.4583C176.074 22.6637 176.464 22.7664 176.937 22.7664C177.43 22.7664 177.799 22.6534 178.046 22.4275C178.313 22.181 178.487 21.8422 178.57 21.4109C178.672 20.959 178.724 20.4353 178.724 19.8397V18.7615H181.928V19.4392C181.928 21.226 181.548 22.6329 180.788 23.6598C180.028 24.6867 178.734 25.2001 176.906 25.2001ZM174.934 14.3253H178.724V12.7233C178.724 11.9839 178.683 11.3678 178.6 10.8749C178.518 10.3614 178.344 9.98147 178.077 9.73501C177.83 9.46802 177.43 9.33452 176.875 9.33452C176.341 9.33452 175.93 9.45775 175.643 9.7042C175.376 9.95066 175.191 10.3717 175.088 10.9673C174.986 11.5424 174.934 12.3433 174.934 13.3702V14.3253Z" fill="white"/>
<path d="M189.072 25.2001C187.613 25.2001 186.443 24.7483 185.56 23.8446C184.676 22.9204 184.173 21.7087 184.05 20.2094L186.792 19.3776C186.956 20.5072 187.233 21.3595 187.624 21.9346C188.014 22.4891 188.589 22.7664 189.349 22.7664C189.944 22.7664 190.396 22.6021 190.704 22.2735C191.012 21.9243 191.166 21.4622 191.166 20.8871C191.166 20.3737 191.054 19.9116 190.828 19.5008C190.602 19.0901 190.232 18.669 189.719 18.2377L186.669 15.6191C186.053 15.0852 185.529 14.4896 185.098 13.8323C184.687 13.1751 184.481 12.3228 184.481 11.2754C184.481 10.3306 184.666 9.5399 185.036 8.90322C185.426 8.24601 185.96 7.7531 186.638 7.42449C187.336 7.07534 188.147 6.90077 189.072 6.90077C190.489 6.90077 191.567 7.36287 192.306 8.28708C193.066 9.19076 193.498 10.2895 193.6 11.5834L191.382 12.4152C191.3 11.7991 191.177 11.2651 191.012 10.8133C190.848 10.3409 190.622 9.98147 190.335 9.73501C190.047 9.46802 189.667 9.33452 189.195 9.33452C188.661 9.33452 188.23 9.51936 187.901 9.88905C187.593 10.2382 187.439 10.6592 187.439 11.1521C187.439 11.4602 187.5 11.7683 187.624 12.0763C187.767 12.3639 188.004 12.6514 188.332 12.9389L191.475 15.8348C191.906 16.225 192.306 16.646 192.676 17.0979C193.066 17.5497 193.385 18.0632 193.631 18.6382C193.878 19.2133 194.001 19.8808 194.001 20.6407C194.001 21.6471 193.795 22.4891 193.385 23.1669C192.974 23.8446 192.399 24.3581 191.659 24.7072C190.92 25.0358 190.057 25.2001 189.072 25.2001Z" fill="white"/>
</svg>
